<svg width="42" height="26" viewBox="0 0 42 26" fill="none" xmlns="http://www.w3.org/2000/svg">
<path fill-rule="evenodd" clip-rule="evenodd" d="M0 18.8129C0 12.9548 4.85287 11.281 7.48731 11.281C7.7184 8.11946 10.815 1.39612 17.8863 0.262106C25.5401 -0.965321 29.9031 4.12105 31.336 6.81764C34.8021 6.81764 41.0415 9.3283 41.0415 16.9997C41.0415 23.4158 35.2179 25.5544 32.3061 25.9264H5.96211C3.88231 25.787 0 23.1368 0 18.8129ZM31.4745 13.1162C31.4745 19.4329 26.3839 24.5536 20.1048 24.5536C13.8255 24.5536 8.73514 19.4329 8.73514 13.1162C8.73514 6.79956 13.8255 1.67886 20.1048 1.67886C26.3839 1.67886 31.4745 6.79956 31.4745 13.1162ZM18.8572 8.84381L14.6099 13.1164L18.8572 17.389L17.7953 18.4572L12.4862 13.1164L17.7953 7.77565L18.8572 8.84381ZM21.3522 8.84381L25.5996 13.1164L21.3522 17.389L22.4141 18.4572L27.723 13.1164L22.4141 7.77565L21.3522 8.84381Z" fill="url(#paint0_linear_2901_5805)"></path>
<defs>
<linearGradient id="paint0_linear_2901_5805" x1="41.0415" y1="0.0742107" x2="6.95117" y2="33.1015" gradientUnits="userSpaceOnUse">
<stop stop-color="#A5FECB"></stop>
<stop offset="0.483932" stop-color="#12D8FA"></stop>
<stop offset="1" stop-color="#1FA2FF"></stop>
</linearGradient>
</defs>
</svg>